<?xml version="1.0" encoding="UTF-8"?>
<svg id="Icon" xmlns="http://www.w3.org/2000/svg" viewBox="0 0 1000 1000">
  <defs>
    <style>
      .cls-1 {
        fill: #5f7998;
      }

      .cls-2 {
        fill: #069;
      }

      .cls-3 {
        fill: #01c38d;
      }
    </style>
  </defs>
  <path class="cls-1" d="M714.9,657.42c22.09,0,40,17.91,40,40s-17.91,40-40,40l-121.56-.1v30.87h161.35l143.56-92.51c20.26-14.45,48.4-9.74,62.85,10.52,14.45,20.26,9.74,48.4-10.52,62.85l-233.04,141.95-285.66,1-91.05-150.54,89.82-84.07,284.26.04Z"/>
  <path class="cls-2" d="M252.54,650.89c7.76,15.67,12.13,33.33,12.13,52,0,64.83-52.56,117.39-117.39,117.39s-117.38-52.56-117.38-117.39,52.55-117.38,117.38-117.38c44.63,0,83.44,24.9,103.29,61.57l184.7-384.3c-13,6.53-27.67,10.2-43.2,10.2-47.92,0-87.69-34.94-95.21-80.74L15.51,659.45l1.35,125.1,56.17,107.41,324.81.02-145.3-241.09ZM321.18,304.87l15.26,8.62-94.31,213.02s-41.17-22.28-41.9-22.28l120.95-199.35Z"/>
  <path class="cls-2" d="M147.28,618.62c-46.54,0-84.28,37.73-84.28,84.28s37.73,84.29,84.28,84.29,84.29-37.73,84.29-84.29-37.74-84.28-84.29-84.28ZM147.28,746.45c-24.05,0-43.56-19.5-43.56-43.56s19.51-43.56,43.56-43.56,43.56,19.51,43.56,43.56-19.5,43.56-43.56,43.56Z"/>
  <path class="cls-2" d="M392.06,108.01c-37.83,0-68.49,30.66-68.49,68.48s30.66,68.49,68.49,68.49,68.49-30.66,68.49-68.49-30.67-68.48-68.49-68.48ZM392.06,218.45c-23.16,0-41.95-18.78-41.95-41.96s18.78-41.95,41.95-41.95,41.95,18.78,41.95,41.95-18.78,41.96-41.95,41.96Z"/>
  <path class="cls-2" d="M647.31,265.66c-.45,12.57,3.67,24.25,10.86,33.45l-.04.14-204.44-48.52c21.3-17.7,34.85-44.39,34.85-74.24,0-14.21-3.07-27.7-8.59-39.85l1.54-6.67c67.82,29.09,136.12,58.78,203.95,87.87-21.28,5.64-37.3,24.67-38.13,47.81Z"/>
  <path class="cls-2" d="M730.31,254.13c-5.04-11.93-16.65-20.5-30.45-20.99-8.17-.3-15.77,2.29-21.84,6.85-8.01,6.02-13.34,15.48-13.73,26.27-.14,3.72.33,7.33,1.31,10.73h0c3.99,13.92,16.56,24.3,31.8,24.85,2.63.1,5.2-.11,7.69-.59,15.41-2.93,27.3-16.2,27.89-32.54.18-5.17-.79-10.11-2.68-14.58ZM718.93,275.39c-.62,1.62-1.44,3.16-2.43,4.55-4.08,5.86-10.96,9.59-18.63,9.31-12.03-.43-21.43-10.52-20.99-22.54.43-12.03,10.52-21.43,22.54-21,12.02.44,21.43,10.53,20.99,22.55-.09,2.51-.6,4.91-1.47,7.12Z"/>
  <path class="cls-3" d="M956.24,303.07h-48.65l-14.43-33.09-110.61,15.27-13.01,119.38,65.06,37.9-12.72,28.57-82.19-28.85-43.96-123.48c.36.02.73.04,1.09.05,28.35,1.01,52.14-21.15,53.16-49.5.44-12.24-3.44-23.63-10.28-32.7l8.35-8.52,177.65,9.62,30.56,65.35Z"/>
  <polygon class="cls-3" points="919.14 325.25 944.06 319.94 984.49 333.41 973.47 415.69 928.13 437.16 928.13 484.13 913.01 484.13 913.01 627.5 894.63 647.08 888.51 464.94 883.61 650.89 865.22 631.59 818.25 631.59 818.25 607.49 839.08 607.49 839.08 585.6 822.29 585.6 822.29 561.5 839.9 561.5 839.9 541.52 818.25 541.52 818.25 517.42 857.46 517.42 857.46 415.69 918.32 412.25 940.38 353.02 919.14 325.25"/>
</svg>